<mxfile host="www.draw.io" modified="2019-10-28T18:35:30.699Z" agent="Mozilla/5.0 (Macintosh; Intel Mac OS X 10_14_6) AppleWebKit/537.36 (KHTML, like Gecko) Chrome/77.0.3865.120 Safari/537.36" etag="4uUaD35pTKuxTws0aWZx" version="12.1.8" type="github" pages="1">
  <diagram id="x5b_3-YbYWvAeVyZhtYZ" name="Page-1">
    <mxGraphModel dx="1329" dy="806" grid="1" gridSize="10" guides="1" tooltips="1" connect="1" arrows="1" fold="1" page="1" pageScale="1" pageWidth="1100" pageHeight="850" math="0" shadow="0">
      <root>
        <mxCell id="0"/>
        <mxCell id="1" parent="0"/>
        <mxCell id="OW8kXWaO3b8pZu1HZWHI-2" value="" style="rounded=1;arcSize=10;dashed=0;strokeColor=#000000;fillColor=none;gradientColor=none;strokeWidth=2;" parent="1" vertex="1">
          <mxGeometry x="300" y="195" width="690" height="455" as="geometry"/>
        </mxCell>
        <mxCell id="VhqsVnI0zUZjItoEZSw--12" style="edgeStyle=orthogonalEdgeStyle;rounded=0;orthogonalLoop=1;jettySize=auto;html=1;entryX=0.5;entryY=0;entryDx=0;entryDy=0;entryPerimeter=0;fontColor=#FFFFFF;" edge="1" parent="1" source="OW8kXWaO3b8pZu1HZWHI-1" target="VhqsVnI0zUZjItoEZSw--11">
          <mxGeometry relative="1" as="geometry">
            <mxPoint x="884.5" y="310" as="sourcePoint"/>
          </mxGeometry>
        </mxCell>
        <mxCell id="VhqsVnI0zUZjItoEZSw--17" style="edgeStyle=orthogonalEdgeStyle;rounded=0;orthogonalLoop=1;jettySize=auto;html=1;fontColor=#FFFFFF;" edge="1" parent="1" source="OW8kXWaO3b8pZu1HZWHI-1" target="OW8kXWaO3b8pZu1HZWHI-5">
          <mxGeometry relative="1" as="geometry"/>
        </mxCell>
        <mxCell id="OW8kXWaO3b8pZu1HZWHI-1" value="" style="outlineConnect=0;fontColor=#232F3E;gradientColor=#F34482;gradientDirection=north;fillColor=#BC1356;strokeColor=#ffffff;dashed=0;verticalLabelPosition=bottom;verticalAlign=top;align=center;html=1;fontSize=12;fontStyle=0;aspect=fixed;shape=mxgraph.aws4.resourceIcon;resIcon=mxgraph.aws4.appsync;" parent="1" vertex="1">
          <mxGeometry x="842.5" y="160" width="78" height="78" as="geometry"/>
        </mxCell>
        <mxCell id="OW8kXWaO3b8pZu1HZWHI-3" value="" style="dashed=0;html=1;shape=mxgraph.aws3.virtual_private_cloud;fillColor=#F58536;gradientColor=none;dashed=0;" parent="1" vertex="1">
          <mxGeometry x="290" y="168" width="100" height="70" as="geometry"/>
        </mxCell>
        <mxCell id="VhqsVnI0zUZjItoEZSw--15" style="edgeStyle=orthogonalEdgeStyle;rounded=0;orthogonalLoop=1;jettySize=auto;html=1;fontColor=#FFFFFF;" edge="1" parent="1" source="OW8kXWaO3b8pZu1HZWHI-5" target="VhqsVnI0zUZjItoEZSw--9">
          <mxGeometry relative="1" as="geometry"/>
        </mxCell>
        <mxCell id="OW8kXWaO3b8pZu1HZWHI-5" value="&amp;lt;&amp;lt;Lambda&amp;gt;&amp;gt;" style="outlineConnect=0;dashed=0;verticalLabelPosition=bottom;verticalAlign=top;align=center;html=1;shape=mxgraph.aws3.lambda_function;fillColor=#F58534;gradientColor=none;" parent="1" vertex="1">
          <mxGeometry x="902.5" y="352" width="48" height="50" as="geometry"/>
        </mxCell>
        <mxCell id="VhqsVnI0zUZjItoEZSw--1" value="&amp;lt;&amp;lt;GitHub Repo&amp;gt;&amp;gt;&lt;br&gt;&lt;b&gt;TRV Enterprise GtHub&lt;/b&gt;" style="shape=image;html=1;verticalAlign=top;verticalLabelPosition=bottom;labelBackgroundColor=#ffffff;imageAspect=0;aspect=fixed;image=https://cdn3.iconfinder.com/data/icons/free-social-icons/67/github_six_black-128.png" vertex="1" parent="1">
          <mxGeometry x="90" y="630" width="100" height="100" as="geometry"/>
        </mxCell>
        <mxCell id="VhqsVnI0zUZjItoEZSw--19" style="edgeStyle=orthogonalEdgeStyle;rounded=0;orthogonalLoop=1;jettySize=auto;html=1;entryX=0.453;entryY=1.066;entryDx=0;entryDy=0;entryPerimeter=0;fontColor=#FFFFFF;" edge="1" parent="1" source="VhqsVnI0zUZjItoEZSw--2" target="VhqsVnI0zUZjItoEZSw--4">
          <mxGeometry relative="1" as="geometry"/>
        </mxCell>
        <mxCell id="VhqsVnI0zUZjItoEZSw--2" value="&amp;lt;&amp;lt;Jenkins&amp;gt;&amp;gt;&lt;br&gt;&lt;b&gt;TRV Jenkins Build&lt;/b&gt;" style="shape=image;html=1;verticalAlign=top;verticalLabelPosition=bottom;labelBackgroundColor=#ffffff;imageAspect=0;aspect=fixed;image=https://cdn4.iconfinder.com/data/icons/logos-brands-5/24/jenkins-128.png" vertex="1" parent="1">
          <mxGeometry x="99" y="490" width="82" height="82" as="geometry"/>
        </mxCell>
        <mxCell id="VhqsVnI0zUZjItoEZSw--8" style="edgeStyle=orthogonalEdgeStyle;rounded=0;orthogonalLoop=1;jettySize=auto;html=1;fontColor=#FFFFFF;" edge="1" parent="1" source="VhqsVnI0zUZjItoEZSw--4" target="VhqsVnI0zUZjItoEZSw--5">
          <mxGeometry relative="1" as="geometry"/>
        </mxCell>
        <mxCell id="VhqsVnI0zUZjItoEZSw--4" value="&lt;b&gt;UCD&lt;/b&gt;" style="html=1;aspect=fixed;strokeColor=none;shadow=0;align=center;verticalAlign=bottom;fillColor=#3B8DF1;shape=mxgraph.gcp2.process;fontColor=#FFFFFF;" vertex="1" parent="1">
          <mxGeometry x="111" y="328" width="64" height="76" as="geometry"/>
        </mxCell>
        <mxCell id="VhqsVnI0zUZjItoEZSw--5" value="&amp;lt;&amp;lt;S3 Bucket&amp;gt;&amp;gt;&lt;br&gt;&lt;b&gt;Site Bucket&lt;/b&gt;" style="shape=image;html=1;verticalAlign=top;verticalLabelPosition=bottom;labelBackgroundColor=#ffffff;imageAspect=0;aspect=fixed;image=https://cdn2.iconfinder.com/data/icons/amazon-aws-stencils/100/Storage__Content_Delivery_Amazon_S3_Bucket-128.png" vertex="1" parent="1">
          <mxGeometry x="380" y="322" width="88" height="88" as="geometry"/>
        </mxCell>
        <mxCell id="VhqsVnI0zUZjItoEZSw--9" value="" style="outlineConnect=0;dashed=0;verticalLabelPosition=bottom;verticalAlign=top;align=center;html=1;shape=mxgraph.aws3.dynamo_db;fillColor=#2E73B8;gradientColor=none;fontColor=#FFFFFF;" vertex="1" parent="1">
          <mxGeometry x="845" y="514" width="72" height="81" as="geometry"/>
        </mxCell>
        <mxCell id="VhqsVnI0zUZjItoEZSw--14" style="edgeStyle=orthogonalEdgeStyle;rounded=0;orthogonalLoop=1;jettySize=auto;html=1;entryX=0.5;entryY=0;entryDx=0;entryDy=0;entryPerimeter=0;fontColor=#FFFFFF;" edge="1" parent="1" source="VhqsVnI0zUZjItoEZSw--11" target="VhqsVnI0zUZjItoEZSw--9">
          <mxGeometry relative="1" as="geometry"/>
        </mxCell>
        <mxCell id="VhqsVnI0zUZjItoEZSw--11" value="&amp;lt;&amp;lt;Lambda&amp;gt;&amp;gt;&lt;br&gt;" style="outlineConnect=0;dashed=0;verticalLabelPosition=bottom;verticalAlign=top;align=center;html=1;shape=mxgraph.aws3.lambda_function;fillColor=#F58534;gradientColor=none;" vertex="1" parent="1">
          <mxGeometry x="812.5" y="352" width="48" height="50" as="geometry"/>
        </mxCell>
      </root>
    </mxGraphModel>
  </diagram>
</mxfile>
